<svg xmlns="http://www.w3.org/2000/svg" width="28" height="28" viewBox="0 0 28 28" fill="none">
  <path d="M5.83325 9.3335C3.89659 9.3335 2.33325 10.8968 2.33325 12.8335V22.1668C2.33325 24.1035 3.89659 25.6668 5.83325 25.6668H7.58325C8.86659 25.6668 9.91659 24.6168 9.91659 23.3335V11.6668C9.91659 10.3835 8.86659 9.3335 7.58325 9.3335H5.83325ZM6.99992 19.8335C6.99992 20.3118 6.60325 20.7085 6.12492 20.7085C5.64659 20.7085 5.24992 20.3118 5.24992 19.8335V15.1668C5.24992 14.6885 5.64659 14.2918 6.12492 14.2918C6.60325 14.2918 6.99992 14.6885 6.99992 15.1668V19.8335Z" fill="white"/>
  <path d="M22.1667 2.3335H15.1667C13.2301 2.3335 11.6667 3.89683 11.6667 5.8335V22.1668C11.6667 24.1035 13.2301 25.6668 15.1667 25.6668H15.7501C16.0767 25.6668 16.3334 25.4102 16.3334 25.0835V21.0002C16.3334 20.3585 16.8584 19.8335 17.5001 19.8335H19.8334C20.4751 19.8335 21.0001 20.3585 21.0001 21.0002V25.0835C21.0001 25.4102 21.2567 25.6668 21.5834 25.6668H22.1667C24.1034 25.6668 25.6667 24.1035 25.6667 22.1668V5.8335C25.6667 3.89683 24.1034 2.3335 22.1667 2.3335ZM17.2084 15.1668C17.2084 15.6452 16.8117 16.0418 16.3334 16.0418C15.8551 16.0418 15.4584 15.6452 15.4584 15.1668V9.3335C15.4584 8.85516 15.8551 8.4585 16.3334 8.4585C16.8117 8.4585 17.2084 8.85516 17.2084 9.3335V15.1668ZM21.8751 15.1668C21.8751 15.6452 21.4784 16.0418 21.0001 16.0418C20.5217 16.0418 20.1251 15.6452 20.1251 15.1668V9.3335C20.1251 8.85516 20.5217 8.4585 21.0001 8.4585C21.4784 8.4585 21.8751 8.85516 21.8751 9.3335V15.1668Z" fill="white"/>
</svg>