<svg xmlns="http://www.w3.org/2000/svg" width="24" height="24" viewBox="0 0 24 24" fill="none">
  <path d="M9 22H15C20 22 22 20 22 15V9C22 4 20 2 15 2H9C4 2 2 4 2 9V15C2 20 4 22 9 22Z" stroke="#7065F0" stroke-width="3" stroke-linecap="round" stroke-linejoin="round"/>
  <path d="M9.09985 12V10.52C9.09985 8.60999 10.4499 7.83999 12.0999 8.78999L13.3799 9.52999L14.6599 10.27C16.3099 11.22 16.3099 12.78 14.6599 13.73L13.3799 14.47L12.0999 15.21C10.4499 16.16 9.09985 15.38 9.09985 13.48V12Z" stroke="#7065F0" stroke-width="3" stroke-miterlimit="10" stroke-linecap="round" stroke-linejoin="round"/>
</svg>