<svg xmlns="http://www.w3.org/2000/svg" width="28" height="28" viewBox="0 0 28 28" fill="none">
  <path d="M17.4999 25.6668H10.4999C4.66659 25.6668 2.33325 23.3335 2.33325 17.5002V10.5002C2.33325 4.66683 4.66659 2.3335 10.4999 2.3335H17.4999C23.3333 2.3335 25.6666 4.66683 25.6666 10.5002V17.5002C25.6666 23.3335 23.3333 25.6668 17.4999 25.6668Z" fill="white"/>
  <path d="M10.1172 16.718C10.1172 18.223 11.2722 19.4363 12.7072 19.4363H15.6355C16.8839 19.4363 17.8989 18.3747 17.8989 17.068C17.8989 15.6447 17.2805 15.143 16.3589 14.8163L11.6572 13.183C10.7355 12.8563 10.1172 12.3547 10.1172 10.9313C10.1172 9.62465 11.1322 8.56299 12.3805 8.56299H15.3089C16.7439 8.56299 17.8989 9.77632 17.8989 11.2813" stroke="#7065F0" stroke-width="2" stroke-linecap="round" stroke-linejoin="round"/>
  <path d="M14 7V21" stroke="#7065F0" stroke-width="2" stroke-linecap="round" stroke-linejoin="round"/>
</svg>