<svg xmlns="http://www.w3.org/2000/svg" width="15" height="15" viewBox="0 0 15 15" fill="none">
  <path d="M1.8999 8.2001C1.8999 8.01445 1.97365 7.8364 2.10493 7.70512C2.2362 7.57385 2.41425 7.5001 2.5999 7.5001H3.9999C4.18555 7.5001 4.3636 7.57385 4.49488 7.70512C4.62615 7.8364 4.6999 8.01445 4.6999 8.2001V11.7001C4.6999 11.8858 4.62615 12.0638 4.49488 12.1951C4.3636 12.3264 4.18555 12.4001 3.9999 12.4001H2.5999C2.41425 12.4001 2.2362 12.3264 2.10493 12.1951C1.97365 12.0638 1.8999 11.8858 1.8999 11.7001V8.2001ZM6.0999 5.4001C6.0999 5.21445 6.17365 5.0364 6.30493 4.90512C6.4362 4.77385 6.61425 4.7001 6.7999 4.7001H8.1999C8.38555 4.7001 8.5636 4.77385 8.69488 4.90512C8.82615 5.0364 8.8999 5.21445 8.8999 5.4001V11.7001C8.8999 11.8858 8.82615 12.0638 8.69488 12.1951C8.5636 12.3264 8.38555 12.4001 8.1999 12.4001H6.7999C6.61425 12.4001 6.4362 12.3264 6.30493 12.1951C6.17365 12.0638 6.0999 11.8858 6.0999 11.7001V5.4001ZM10.2999 3.3001C10.2999 3.11445 10.3737 2.9364 10.5049 2.80512C10.6362 2.67385 10.8143 2.6001 10.9999 2.6001H12.3999C12.5856 2.6001 12.7636 2.67385 12.8949 2.80512C13.0262 2.9364 13.0999 3.11445 13.0999 3.3001V11.7001C13.0999 11.8858 13.0262 12.0638 12.8949 12.1951C12.7636 12.3264 12.5856 12.4001 12.3999 12.4001H10.9999C10.8143 12.4001 10.6362 12.3264 10.5049 12.1951C10.3737 12.0638 10.2999 11.8858 10.2999 11.7001V3.3001Z" fill="white"/>
</svg>