<svg xmlns="http://www.w3.org/2000/svg" width="28" height="28" viewBox="0 0 28 28" fill="none">
  <g clip-path="url(#clip0_601_3818)">
    <path d="M24.1645 9.19558L16.3872 3.15199C15.7047 2.62151 14.8646 2.3335 13.9999 2.3335C13.1352 2.3335 12.2951 2.62151 11.6126 3.15199L3.83388 9.19558C3.3664 9.55878 2.98818 10.0239 2.7281 10.5555C2.46803 11.087 2.33297 11.6709 2.33325 12.2625V22.7529C2.33325 23.5257 2.64054 24.2669 3.18752 24.8133C3.73451 25.3598 4.47637 25.6668 5.24992 25.6668H22.7499C23.5235 25.6668 24.2653 25.3598 24.8123 24.8133C25.3593 24.2669 25.6666 23.5257 25.6666 22.7529V12.2625C25.6666 11.0634 25.1124 9.93136 24.1645 9.19558Z" fill="white" stroke="white" stroke-width="2" stroke-linecap="round" stroke-linejoin="round"/>
  </g>
  <defs>
    <clipPath id="clip0_601_3818">
      <rect width="28" height="28" fill="white"/>
    </clipPath>
  </defs>
</svg>